<?xml version="1.0" standalone="no"?>
<!DOCTYPE svg PUBLIC "-//W3C//DTD SVG 20010904//EN"
 "http://www.w3.org/TR/2001/REC-SVG-20010904/DTD/svg10.dtd">
<svg version="1.0" xmlns="http://www.w3.org/2000/svg"
 width="309.000000pt" height="217.000000pt" viewBox="0 0 309.000000 217.000000"
 preserveAspectRatio="xMidYMid meet">

<g transform="translate(0.000000,217.000000) scale(0.100000,-0.100000)"
fill="#000000" stroke="none">
<path d="M1912 1944 c-78 -21 -174 -71 -231 -121 -58 -51 -263 -288 -259 -300
2 -4 -1 -9 -7 -11 -5 -2 -20 -12 -32 -24 l-22 -20 -56 58 -57 59 46 -54 47
-54 -23 -25 c-13 -14 -32 -35 -43 -47 l-20 -22 -69 66 c-70 66 -70 66 -20 10
27 -30 82 -92 123 -136 l74 -81 63 66 c34 37 116 132 183 212 138 164 189 210
281 254 60 28 75 31 198 34 l132 4 0 74 0 74 -127 -1 c-78 0 -149 -6 -181 -15z"/>
<path d="M832 1248 l-2 -328 75 0 75 0 -2 318 c-1 174 -4 263 -6 197 -1 -69
-6 -114 -11 -107 -7 12 -14 11 -39 -2 -17 -9 -40 -16 -52 -16 -11 0 -21 -6
-22 -12 -1 -7 -5 52 -8 132 -4 110 -6 66 -8 -182z"/>
<path d="M1798 1510 c-15 -9 -88 -119 -88 -134 0 -3 79 -6 175 -6 l175 0 0
-98 c0 -165 -37 -202 -200 -202 -52 0 -146 -3 -208 -7 l-113 -6 -39 -68 c-22
-37 -40 -70 -40 -73 0 -11 523 4 560 16 80 25 150 95 179 178 6 19 14 119 18
222 l6 188 -204 0 c-115 0 -211 -5 -221 -10z"/>
<path d="M300 520 c0 -141 0 -141 23 -138 20 3 22 9 27 93 l5 90 35 -65 c19
-36 43 -66 52 -68 12 -2 28 17 55 70 l38 73 3 -98 c3 -95 3 -98 25 -95 21 3
22 7 25 141 l3 138 -32 -3 c-28 -3 -36 -12 -74 -81 l-42 -78 -44 78 c-36 64
-49 79 -71 81 l-28 3 0 -141z"/>
<path d="M790 656 c0 -2 -25 -63 -54 -135 l-55 -131 29 0 c22 0 30 6 37 27 8
24 15 26 71 30 l61 4 14 -34 c11 -26 20 -33 38 -32 29 3 30 -1 -33 152 -48
117 -52 123 -79 123 -16 0 -29 -2 -29 -4z m49 -103 c8 -21 16 -44 18 -50 4 -9
-7 -13 -36 -13 -23 0 -41 3 -41 7 0 15 33 93 39 93 4 0 13 -17 20 -37z"/>
<path d="M1000 654 c0 -16 93 -250 104 -262 8 -8 20 -10 35 -4 18 6 34 36 72
137 27 70 49 130 49 132 0 2 -12 3 -27 1 -23 -3 -30 -13 -62 -100 -37 -97 -51
-124 -51 -97 0 8 -15 55 -34 104 -30 79 -37 90 -60 93 -14 2 -26 0 -26 -4z"/>
<path d="M1350 525 c0 -128 1 -135 20 -135 11 0 23 -1 27 -2 10 -4 12 47 6
165 -6 104 -6 107 -29 107 l-24 0 0 -135z"/>
<path d="M1539 621 c-37 -36 -39 -42 -39 -99 0 -50 4 -66 26 -91 46 -55 142
-65 196 -21 22 18 22 20 6 36 -16 17 -19 17 -36 1 -10 -10 -35 -17 -56 -17
-82 0 -118 100 -57 161 34 33 56 36 106 12 28 -13 38 -14 48 -4 9 10 6 17 -16
37 -23 19 -39 24 -84 24 -51 0 -58 -3 -94 -39z"/>
<path d="M1889 646 c-59 -34 -84 -124 -52 -186 23 -44 76 -80 120 -80 88 0
143 57 143 148 0 45 -4 57 -34 89 -30 33 -39 37 -92 40 -39 2 -68 -2 -85 -11z
m132 -55 c23 -23 29 -38 29 -71 0 -82 -88 -123 -147 -68 -28 26 -36 62 -23
104 23 68 91 85 141 35z"/>
<path d="M2195 588 c-4 -40 -5 -102 -3 -138 l3 -65 80 3 c89 4 115 16 145 65
39 64 15 155 -50 189 -24 12 -56 18 -101 18 l-67 0 -7 -72z m146 17 c55 -29
65 -100 20 -146 -23 -23 -39 -29 -70 -29 l-41 0 0 95 0 95 30 0 c17 0 44 -7
61 -15z"/>
<path d="M2530 520 l0 -140 95 0 c95 0 95 0 95 25 0 24 -2 25 -70 25 l-70 0 0
35 0 35 66 0 c62 0 65 1 62 23 -3 20 -9 22 -66 25 l-63 3 3 32 3 32 68 3 c59
3 67 5 67 22 0 18 -7 20 -95 20 l-95 0 0 -140z"/>
<path d="M767 243 c-17 -17 -5 -45 23 -54 17 -6 30 -18 30 -26 0 -11 -8 -14
-30 -11 -32 5 -42 -7 -12 -14 28 -8 64 10 60 29 -2 9 -16 24 -32 32 -34 19
-34 37 0 34 13 -1 22 2 19 8 -7 10 -48 12 -58 2z"/>
<path d="M947 232 c-35 -38 -13 -92 36 -92 42 0 57 15 57 57 0 50 -59 72 -93
35z m67 -8 c31 -31 13 -74 -31 -74 -33 0 -49 35 -28 66 18 28 37 31 59 8z"/>
<path d="M1140 195 l0 -55 43 2 c36 1 38 2 10 5 -32 4 -33 5 -33 54 0 27 -4
49 -10 49 -5 0 -10 -25 -10 -55z"/>
<path d="M1314 200 c1 -53 2 -55 29 -58 41 -5 57 14 57 64 0 59 -18 56 -22 -3
-3 -44 -5 -48 -28 -48 -23 0 -26 5 -31 50 l-6 50 1 -55z"/>
<path d="M1508 243 c19 -4 22 -11 24 -56 l1 -52 6 49 c4 37 11 51 26 57 13 5
4 7 -30 7 -27 0 -40 -3 -27 -5z"/>
<path d="M1670 195 c0 -30 5 -55 10 -55 6 0 10 25 10 55 0 30 -4 55 -10 55 -5
0 -10 -25 -10 -55z"/>
<path d="M1808 239 c-21 -12 -24 -69 -6 -87 20 -20 76 -15 88 7 32 61 -23 115
-82 80z m60 -11 c7 -7 12 -25 12 -40 0 -21 -6 -29 -25 -34 -47 -12 -73 36 -39
70 19 19 36 20 52 4z"/>
<path d="M2002 193 c1 -43 2 -48 5 -20 2 20 8 37 12 37 5 0 19 -16 32 -35 13
-19 27 -35 32 -35 4 0 6 26 5 58 l-1 57 -6 -45 -6 -45 -30 42 c-16 24 -33 43
-37 43 -5 0 -7 -26 -6 -57z"/>
<path d="M2207 243 c-17 -17 -5 -45 23 -55 39 -13 33 -33 -10 -31 -21 1 -29
-2 -22 -9 5 -5 22 -8 38 -6 23 2 29 8 29 28 0 17 -7 26 -25 30 -35 8 -33 36 3
33 15 -1 25 2 22 8 -7 10 -48 12 -58 2z"/>
<path d="M383 193 c48 -2 125 -2 170 0 45 1 6 3 -88 3 -93 0 -130 -2 -82 -3z"/>
<path d="M2478 193 c45 -2 119 -2 165 0 45 1 8 3 -83 3 -91 0 -128 -2 -82 -3z"/>
</g>
</svg>
